<svg width="36" height="36" viewBox="0 0 36 36" fill="none" xmlns="http://www.w3.org/2000/svg">
<path fill-rule="evenodd" clip-rule="evenodd" d="M19.7475 17.9901L19.7452 17.4589C19.7269 15.3522 19.5999 13.4726 19.3809 12.2814C19.3809 12.26 19.142 11.0786 18.9898 10.6853C18.7509 10.1169 18.3189 9.63448 17.7773 9.3288C17.3437 9.1107 16.8888 9 16.4126 9C16.0383 9.01735 15.421 9.20571 14.9804 9.36363L14.6142 9.50395C12.1892 10.4672 7.55342 13.6148 5.77798 15.5397L5.64709 15.6743L5.0629 16.3048C4.69472 16.7872 4.5 17.3771 4.5 18.0116C4.5 18.58 4.67345 19.1483 5.02036 19.6077C5.12421 19.7565 5.2915 19.9474 5.44039 20.1087L6.009 20.7039C7.96569 22.6864 12.2023 25.4673 14.3982 26.3887C14.3982 26.4085 15.763 26.9785 16.4126 27H16.4993C17.4958 27 18.4269 26.4316 18.9031 25.5129C19.0332 25.2618 19.158 24.7698 19.2529 24.3378L19.4235 23.5219C19.6182 22.21 19.7475 20.1975 19.7475 17.9901ZM29.2451 20.2775C30.4904 20.2775 31.5 19.2581 31.5 18.0007C31.5 16.7433 30.4904 15.7238 29.2451 15.7238L23.6963 16.2145C22.7194 16.2145 21.9274 17.0126 21.9274 18.0007C21.9274 18.9871 22.7194 19.7868 23.6963 19.7868L29.2451 20.2775Z" fill="#130F26"/>
</svg>
