<svg width="888" height="48" viewBox="0 0 888 48" fill="none" xmlns="http://www.w3.org/2000/svg">
<rect y="20" width="888" height="8" rx="4" fill="#57417C"/>
<circle cx="24" cy="24" r="24" fill="#57417C"/>
<circle cx="304" cy="24" r="24" fill="#57417C"/>
<circle cx="584" cy="24" r="24" fill="#57417C"/>
<circle cx="864" cy="24" r="24" fill="#58417C"/>
<path d="M858.172 27.92C859.66 25.984 861.228 24 862.876 21.968C864.524 19.92 866.1 17.928 867.604 15.992V25.784H869.956V27.92H867.604V32H865.372V27.92H858.172ZM865.372 21.968L862.444 25.784H865.372V21.968Z" fill="white"/>
<path fill-rule="evenodd" clip-rule="evenodd" d="M35.5782 16.4218C36.1406 16.9841 36.1406 17.8959 35.5782 18.4582L22.1382 31.8982C21.5759 32.4606 20.6641 32.4606 20.1018 31.8982L12.4218 24.2182C11.8594 23.6559 11.8594 22.7441 12.4218 22.1818C12.9841 21.6194 13.8959 21.6194 14.4582 22.1818L21.12 28.8435L33.5418 16.4218C34.1041 15.8594 35.0159 15.8594 35.5782 16.4218Z" fill="white"/>
<path fill-rule="evenodd" clip-rule="evenodd" d="M315.578 16.4218C316.141 16.9841 316.141 17.8959 315.578 18.4582L302.138 31.8982C301.576 32.4606 300.664 32.4606 300.102 31.8982L292.422 24.2182C291.859 23.6559 291.859 22.7441 292.422 22.1818C292.984 21.6194 293.896 21.6194 294.458 22.1818L301.12 28.8435L313.542 16.4218C314.104 15.8594 315.016 15.8594 315.578 16.4218Z" fill="white"/>
<path fill-rule="evenodd" clip-rule="evenodd" d="M595.578 16.4218C596.141 16.9841 596.141 17.8959 595.578 18.4582L582.138 31.8982C581.576 32.4606 580.664 32.4606 580.102 31.8982L572.422 24.2182C571.859 23.6559 571.859 22.7441 572.422 22.1818C572.984 21.6194 573.896 21.6194 574.458 22.1818L581.12 28.8435L593.542 16.4218C594.104 15.8594 595.016 15.8594 595.578 16.4218Z" fill="white"/>
</svg>
