<svg width="888" height="48" viewBox="0 0 888 48" fill="none" xmlns="http://www.w3.org/2000/svg">
<rect y="20" width="888" height="8" rx="4" fill="#57417C"/>
<circle cx="24" cy="24" r="24" fill="#57417C"/>
<circle cx="304" cy="24" r="24" fill="#57417C"/>
<circle cx="584" cy="24" r="24" fill="#57417C"/>
<circle cx="864" cy="24" r="22.5" fill="white" stroke="#57417C" stroke-width="3"/>
<path d="M858.172 27.92C859.66 25.984 861.228 24 862.876 21.968C864.524 19.92 866.1 17.928 867.604 15.992V25.784H869.956V27.92H867.604V32H865.372V27.92H858.172ZM865.372 21.968L862.444 25.784H865.372V21.968Z" fill="#57417C"/>
<path d="M581.41 24.152C581.938 23.192 582.53 22.232 583.186 21.272C583.842 20.296 584.426 19.32 584.938 18.344H580.066V16.184H588.442C587.882 17.144 587.298 18.104 586.69 19.064C586.082 20.024 585.498 20.984 584.938 21.944C585.962 22.36 586.786 23 587.41 23.864C588.05 24.728 588.37 25.736 588.37 26.888C588.37 27.608 588.226 28.296 587.938 28.952C587.65 29.592 587.258 30.152 586.762 30.632C586.282 31.112 585.714 31.496 585.058 31.784C584.418 32.056 583.738 32.192 583.018 32.192C582.234 32.192 581.506 32.032 580.834 31.712C580.162 31.392 579.578 30.976 579.082 30.464L580.69 28.952C580.978 29.304 581.314 29.576 581.698 29.768C582.098 29.96 582.53 30.056 582.994 30.056C583.426 30.056 583.834 29.976 584.218 29.816C584.602 29.64 584.938 29.408 585.226 29.12C585.514 28.832 585.738 28.496 585.898 28.112C586.074 27.728 586.162 27.32 586.162 26.888C586.162 26.456 586.074 26.056 585.898 25.688C585.738 25.304 585.514 24.968 585.226 24.68C584.938 24.392 584.602 24.168 584.218 24.008C583.834 23.848 583.426 23.768 582.994 23.768C582.402 23.768 581.874 23.896 581.41 24.152Z" fill="white"/>
<path fill-rule="evenodd" clip-rule="evenodd" d="M35.5782 16.4218C36.1406 16.9841 36.1406 17.8959 35.5782 18.4582L22.1382 31.8982C21.5759 32.4606 20.6641 32.4606 20.1018 31.8982L12.4218 24.2182C11.8594 23.6559 11.8594 22.7441 12.4218 22.1818C12.9841 21.6194 13.8959 21.6194 14.4582 22.1818L21.12 28.8435L33.5418 16.4218C34.1041 15.8594 35.0159 15.8594 35.5782 16.4218Z" fill="white"/>
<path fill-rule="evenodd" clip-rule="evenodd" d="M315.578 16.4218C316.141 16.9841 316.141 17.8959 315.578 18.4582L302.138 31.8982C301.576 32.4606 300.664 32.4606 300.102 31.8982L292.422 24.2182C291.859 23.6559 291.859 22.7441 292.422 22.1818C292.984 21.6194 293.896 21.6194 294.458 22.1818L301.12 28.8435L313.542 16.4218C314.104 15.8594 315.016 15.8594 315.578 16.4218Z" fill="white"/>
</svg>
