<svg width="888" height="48" viewBox="0 0 888 48" fill="none" xmlns="http://www.w3.org/2000/svg">
<rect y="20" width="888" height="8" rx="4" fill="#57417C"/>
<circle cx="24" cy="24" r="24" fill="#57417C"/>
<circle cx="304" cy="24" r="22.5" fill="white" stroke="#57417C" stroke-width="3"/>
<circle cx="584" cy="24" r="22.5" fill="white" stroke="#57417C" stroke-width="3"/>
<circle cx="864" cy="24" r="22.5" fill="white" stroke="#57417C" stroke-width="3"/>
<path d="M858.172 27.92C859.66 25.984 861.228 24 862.876 21.968C864.524 19.92 866.1 17.928 867.604 15.992V25.784H869.956V27.92H867.604V32H865.372V27.92H858.172ZM865.372 21.968L862.444 25.784H865.372V21.968Z" fill="#57417C"/>
<path d="M581.41 24.152C581.938 23.192 582.53 22.232 583.186 21.272C583.842 20.296 584.426 19.32 584.938 18.344H580.066V16.184H588.442C587.882 17.144 587.298 18.104 586.69 19.064C586.082 20.024 585.498 20.984 584.938 21.944C585.962 22.36 586.786 23 587.41 23.864C588.05 24.728 588.37 25.736 588.37 26.888C588.37 27.608 588.226 28.296 587.938 28.952C587.65 29.592 587.258 30.152 586.762 30.632C586.282 31.112 585.714 31.496 585.058 31.784C584.418 32.056 583.738 32.192 583.018 32.192C582.234 32.192 581.506 32.032 580.834 31.712C580.162 31.392 579.578 30.976 579.082 30.464L580.69 28.952C580.978 29.304 581.314 29.576 581.698 29.768C582.098 29.96 582.53 30.056 582.994 30.056C583.426 30.056 583.834 29.976 584.218 29.816C584.602 29.64 584.938 29.408 585.226 29.12C585.514 28.832 585.738 28.496 585.898 28.112C586.074 27.728 586.162 27.32 586.162 26.888C586.162 26.456 586.074 26.056 585.898 25.688C585.738 25.304 585.514 24.968 585.226 24.68C584.938 24.392 584.602 24.168 584.218 24.008C583.834 23.848 583.426 23.768 582.994 23.768C582.402 23.768 581.874 23.896 581.41 24.152Z" fill="#57417C"/>
<path d="M304.012 29.864H309.628V32H298.732C299.724 30.992 300.684 30.016 301.612 29.072C302.556 28.128 303.388 27.216 304.108 26.336C304.828 25.44 305.404 24.584 305.836 23.768C306.284 22.936 306.508 22.136 306.508 21.368C306.508 20.808 306.412 20.328 306.22 19.928C306.028 19.512 305.788 19.176 305.5 18.92C305.228 18.648 304.924 18.448 304.588 18.32C304.252 18.192 303.94 18.128 303.652 18.128C303.06 18.128 302.572 18.232 302.188 18.44C301.82 18.648 301.524 18.904 301.3 19.208C301.076 19.496 300.916 19.8 300.82 20.12C300.74 20.44 300.7 20.72 300.7 20.96C300.7 21.504 300.78 21.976 300.94 22.376C301.116 22.776 301.348 23.136 301.636 23.456L300.34 24.824C300.052 24.648 299.788 24.408 299.548 24.104C299.324 23.784 299.132 23.448 298.972 23.096C298.812 22.728 298.692 22.36 298.612 21.992C298.532 21.608 298.492 21.264 298.492 20.96C298.492 20.32 298.604 19.704 298.828 19.112C299.052 18.504 299.38 17.968 299.812 17.504C300.26 17.04 300.804 16.672 301.444 16.4C302.084 16.128 302.82 15.992 303.652 15.992C304.42 15.992 305.116 16.128 305.74 16.4C306.364 16.672 306.892 17.048 307.324 17.528C307.772 17.992 308.116 18.536 308.356 19.16C308.612 19.768 308.74 20.408 308.74 21.08C308.74 21.864 308.612 22.632 308.356 23.384C308.1 24.12 307.748 24.856 307.3 25.592C306.868 26.312 306.364 27.024 305.788 27.728C305.228 28.432 304.636 29.144 304.012 29.864Z" fill="#57417C"/>
<path d="M21.4835 18.32V16.184H25.2515V32H23.0195V18.32H21.4835Z" fill="white"/>
</svg>
